TITLE ""
FILE "P1Q_t_0868-0877.mp3" MP3
  TRACK 01 AUDIO
    TITLE "P1Q_t_0868-0877_01"
    INDEX 01 00:00:00
  TRACK 02 AUDIO
    TITLE "P1Q_t_0868-0877_02"
    INDEX 01 00:01:14
  TRACK 03 AUDIO
    TITLE "P1Q_t_0868-0877_03"
    INDEX 01 00:01:33
  TRACK 04 AUDIO
    TITLE "P1Q_t_0868-0877_04"
    INDEX 01 00:03:63
  TRACK 05 AUDIO
    TITLE "P1Q_t_0868-0877_05"
    INDEX 01 00:04:08
  TRACK 06 AUDIO
    TITLE "P1Q_t_0868-0877_06"
    INDEX 01 00:08:39
  TRACK 07 AUDIO
    TITLE "P1Q_t_0868-0877_07"
    INDEX 01 00:09:11
  TRACK 08 AUDIO
    TITLE "P1Q_t_0868-0877_08"
    INDEX 01 00:10:19
  TRACK 09 AUDIO
    TITLE "P1Q_t_0868-0877_09"
    INDEX 01 00:10:38
  TRACK 10 AUDIO
    TITLE "P1Q_t_0868-0877_10"
    INDEX 01 00:13:19
  TRACK 11 AUDIO
    TITLE "P1Q_t_0868-0877_11"
    INDEX 01 00:13:38
  TRACK 12 AUDIO
    TITLE "P1Q_t_0868-0877_12"
    INDEX 01 00:17:28
  TRACK 13 AUDIO
    TITLE "P1Q_t_0868-0877_13"
    INDEX 01 00:18:02
  TRACK 14 AUDIO
    TITLE "P1Q_t_0868-0877_14"
    INDEX 01 00:19:19
  TRACK 15 AUDIO
    TITLE "P1Q_t_0868-0877_15"
    INDEX 01 00:19:41
  TRACK 16 AUDIO
    TITLE "P1Q_t_0868-0877_16"
    INDEX 01 00:22:14
  TRACK 17 AUDIO
    TITLE "P1Q_t_0868-0877_17"
    INDEX 01 00:22:33
  TRACK 18 AUDIO
    TITLE "P1Q_t_0868-0877_18"
    INDEX 01 00:26:51
  TRACK 19 AUDIO
    TITLE "P1Q_t_0868-0877_19"
    INDEX 01 00:27:21
  TRACK 20 AUDIO
    TITLE "P1Q_t_0868-0877_20"
    INDEX 01 00:28:38
  TRACK 21 AUDIO
    TITLE "P1Q_t_0868-0877_21"
    INDEX 01 00:28:60
  TRACK 22 AUDIO
    TITLE "P1Q_t_0868-0877_22"
    INDEX 01 00:31:05
  TRACK 23 AUDIO
    TITLE "P1Q_t_0868-0877_23"
    INDEX 01 00:31:23
  TRACK 24 AUDIO
    TITLE "P1Q_t_0868-0877_24"
    INDEX 01 00:35:56
  TRACK 25 AUDIO
    TITLE "P1Q_t_0868-0877_25"
    INDEX 01 00:36:26
  TRACK 26 AUDIO
    TITLE "P1Q_t_0868-0877_26"
    INDEX 01 00:37:58
  TRACK 27 AUDIO
    TITLE "P1Q_t_0868-0877_27"
    INDEX 01 00:38:05
  TRACK 28 AUDIO
    TITLE "P1Q_t_0868-0877_28"
    INDEX 01 00:39:34
  TRACK 29 AUDIO
    TITLE "P1Q_t_0868-0877_29"
    INDEX 01 00:39:55
  TRACK 30 AUDIO
    TITLE "P1Q_t_0868-0877_30"
    INDEX 01 00:43:43
  TRACK 31 AUDIO
    TITLE "P1Q_t_0868-0877_31"
    INDEX 01 00:44:15
  TRACK 32 AUDIO
    TITLE "P1Q_t_0868-0877_32"
    INDEX 01 00:45:33
  TRACK 33 AUDIO
    TITLE "P1Q_t_0868-0877_33"
    INDEX 01 00:45:54
  TRACK 34 AUDIO
    TITLE "P1Q_t_0868-0877_34"
    INDEX 01 00:48:13
  TRACK 35 AUDIO
    TITLE "P1Q_t_0868-0877_35"
    INDEX 01 00:48:33
  TRACK 36 AUDIO
    TITLE "P1Q_t_0868-0877_36"
    INDEX 01 00:52:58
  TRACK 37 AUDIO
    TITLE "P1Q_t_0868-0877_37"
    INDEX 01 00:53:32
  TRACK 38 AUDIO
    TITLE "P1Q_t_0868-0877_38"
    INDEX 01 00:54:41
  TRACK 39 AUDIO
    TITLE "P1Q_t_0868-0877_39"
    INDEX 01 00:54:61
  TRACK 40 AUDIO
    TITLE "P1Q_t_0868-0877_40"
    INDEX 01 00:57:34
  TRACK 41 AUDIO
    TITLE "P1Q_t_0868-0877_41"
    INDEX 01 00:57:53
  TRACK 42 AUDIO
    TITLE "P1Q_t_0868-0877_42"
    INDEX 01 01:01:71
  TRACK 43 AUDIO
    TITLE "P1Q_t_0868-0877_43"
    INDEX 01 01:02:43
  TRACK 44 AUDIO
    TITLE "P1Q_t_0868-0877_44"
    INDEX 01 01:03:68
  TRACK 45 AUDIO
    TITLE "P1Q_t_0868-0877_45"
    INDEX 01 01:04:14
  TRACK 46 AUDIO
    TITLE "P1Q_t_0868-0877_46"
    INDEX 01 01:07:05
  TRACK 47 AUDIO
    TITLE "P1Q_t_0868-0877_47"
    INDEX 01 01:07:28
  TRACK 48 AUDIO
    TITLE "P1Q_t_0868-0877_48"
    INDEX 01 01:12:43
  TRACK 49 AUDIO
    TITLE "P1Q_t_0868-0877_49"
    INDEX 01 01:13:15
  TRACK 50 AUDIO
    TITLE "P1Q_t_0868-0877_50"
    INDEX 01 01:14:17
  TRACK 51 AUDIO
    TITLE "P1Q_t_0868-0877_51"
    INDEX 01 01:14:42
  TRACK 52 AUDIO
    TITLE "P1Q_t_0868-0877_52"
    INDEX 01 01:16:13
  TRACK 53 AUDIO
    TITLE "P1Q_t_0868-0877_53"
    INDEX 01 01:16:33
  TRACK 54 AUDIO
    TITLE "P1Q_t_0868-0877_54"
    INDEX 01 01:19:65
  TRACK 55 AUDIO
    TITLE "P1Q_t_0868-0877_55"
    INDEX 01 01:20:39
  TRACK 56 AUDIO
    TITLE "P1Q_t_0868-0877_56"
    INDEX 01 01:21:46
  TRACK 57 AUDIO
    TITLE "P1Q_t_0868-0877_57"
    INDEX 01 01:21:70
  TRACK 58 AUDIO
    TITLE "P1Q_t_0868-0877_58"
    INDEX 01 01:26:53
  TRACK 59 AUDIO
    TITLE "P1Q_t_0868-0877_59"
    INDEX 01 01:26:75
  TRACK 60 AUDIO
    TITLE "P1Q_t_0868-0877_60"
    INDEX 01 01:31:70
